<?xml version="1.0" encoding="utf-8"?>
<!-- Generator: Adobe Illustrator 27.6.0, SVG Export Plug-In . SVG Version: 6.00 Build 0)  -->
<svg version="1.1" id="Layer_1" xmlns="http://www.w3.org/2000/svg" xmlns:xlink="http://www.w3.org/1999/xlink" x="0px" y="0px"
	 viewBox="0 0 177 26" style="enable-background:new 0 0 177 26;" xml:space="preserve">
<style type="text/css">
	.st0{fill:#92A8B4;}
	.st1{fill:#8E949A;}
	.st2{fill:url(#SVGID_1_);}
</style>
<g>
	<path class="st0" d="M34.3,21.7V7.2h6.3c1.3,0,2.4,0.2,3.3,0.6c0.9,0.4,1.7,1,2.2,1.8c0.5,0.8,0.8,1.7,0.8,2.8c0,1.1-0.3,2-0.8,2.8
		s-1.2,1.4-2.2,1.8c-0.9,0.4-2.1,0.6-3.3,0.6h-4.4l1.5-1.5v5.5H34.3z M37.7,16.5L36.2,15h4.2c1,0,1.8-0.2,2.3-0.7
		c0.5-0.4,0.8-1.1,0.8-1.8c0-0.8-0.3-1.4-0.8-1.9s-1.3-0.7-2.3-0.7h-4.2l1.5-1.6V16.5z M43.5,21.7l-3.6-5.2h3.6l3.7,5.2H43.5z"/>
	<path class="st0" d="M54.8,21.8c-1.3,0-2.4-0.2-3.3-0.7c-1-0.5-1.7-1.2-2.2-2c-0.5-0.9-0.8-1.8-0.8-2.9c0-1.1,0.3-2.1,0.8-3
		c0.5-0.9,1.2-1.5,2.1-2c0.9-0.5,1.9-0.7,3-0.7c1.1,0,2.1,0.2,2.9,0.7c0.9,0.5,1.6,1.1,2.1,2c0.5,0.9,0.8,1.9,0.8,3.1
		c0,0.1,0,0.3,0,0.4c0,0.2,0,0.3,0,0.4h-9v-1.9h7.3l-1.2,0.6c0-0.6-0.1-1.1-0.4-1.5c-0.2-0.4-0.6-0.8-1-1c-0.4-0.2-0.9-0.4-1.4-0.4
		c-0.6,0-1,0.1-1.5,0.4c-0.4,0.2-0.7,0.6-1,1c-0.2,0.4-0.4,0.9-0.4,1.5v0.5c0,0.6,0.1,1.1,0.4,1.6c0.3,0.5,0.6,0.8,1.1,1.1
		c0.5,0.2,1.1,0.4,1.7,0.4c0.6,0,1.1-0.1,1.6-0.3s0.9-0.4,1.2-0.8l1.7,1.9c-0.5,0.6-1.1,1-1.9,1.3C56.7,21.7,55.8,21.8,54.8,21.8z"
		/>
	<path class="st0" d="M65.4,21.8c-0.9,0-1.6-0.1-2.2-0.4c-0.6-0.3-1.1-0.7-1.4-1.2c-0.3-0.5-0.5-1.1-0.5-1.7c0-0.7,0.2-1.2,0.5-1.7
		c0.3-0.5,0.8-0.9,1.5-1.2c0.7-0.3,1.6-0.4,2.7-0.4h3V17h-2.6c-0.8,0-1.3,0.1-1.6,0.4c-0.3,0.2-0.4,0.6-0.4,0.9c0,0.4,0.2,0.7,0.5,1
		c0.3,0.2,0.8,0.4,1.3,0.4c0.5,0,1-0.1,1.4-0.4c0.4-0.3,0.7-0.6,0.9-1.1l0.5,1.5c-0.2,0.7-0.7,1.3-1.3,1.6
		C67.2,21.6,66.4,21.8,65.4,21.8z M68.8,21.7v-2.2L68.6,19v-3.9c0-0.7-0.2-1.2-0.6-1.6S66.9,13,66,13c-0.6,0-1.2,0.1-1.7,0.3
		c-0.6,0.2-1.1,0.4-1.5,0.8l-1.2-2.3c0.6-0.4,1.3-0.8,2.2-1c0.9-0.2,1.7-0.4,2.6-0.4c1.7,0,3,0.4,3.9,1.2c0.9,0.8,1.4,2,1.4,3.7v6.3
		H68.8z"/>
	<path class="st0" d="M80.2,21.8c-1.2,0-2.3-0.2-3.2-0.7c-0.9-0.5-1.7-1.2-2.2-2c-0.5-0.9-0.8-1.9-0.8-3c0-1.1,0.3-2.1,0.8-3
		c0.5-0.9,1.3-1.5,2.2-2c0.9-0.5,2-0.7,3.2-0.7c1.2,0,2.2,0.2,3.1,0.7c0.9,0.5,1.5,1.2,1.9,2.1l-2.5,1.3c-0.3-0.5-0.7-0.9-1.1-1.2
		c-0.4-0.2-0.9-0.4-1.4-0.4c-0.6,0-1,0.1-1.5,0.4c-0.4,0.2-0.8,0.6-1,1.1c-0.3,0.5-0.4,1-0.4,1.7c0,0.6,0.1,1.2,0.4,1.7
		c0.3,0.5,0.6,0.8,1,1.1c0.4,0.2,0.9,0.4,1.5,0.4c0.5,0,1-0.1,1.4-0.4c0.4-0.2,0.8-0.6,1.1-1.2l2.5,1.4c-0.4,0.9-1.1,1.6-1.9,2.1
		C82.3,21.6,81.3,21.8,80.2,21.8z"/>
	<path class="st1" d="M88.7,21.7V9.9h-4.6V7.2h12.6v2.7h-4.6v11.7H88.7z"/>
	<path class="st1" d="M102.4,21.8c-1.2,0-2.2-0.2-3.1-0.7s-1.6-1.2-2.2-2c-0.5-0.9-0.8-1.8-0.8-2.9c0-1.1,0.3-2.1,0.8-3
		c0.5-0.9,1.3-1.5,2.2-2c0.9-0.5,2-0.7,3.1-0.7c1.2,0,2.2,0.2,3.1,0.7c0.9,0.5,1.6,1.2,2.2,2c0.5,0.9,0.8,1.8,0.8,3
		c0,1.1-0.3,2.1-0.8,2.9c-0.5,0.9-1.2,1.5-2.2,2S103.6,21.8,102.4,21.8z M102.4,19.2c0.5,0,1-0.1,1.4-0.4c0.4-0.2,0.8-0.6,1-1.1
		c0.2-0.5,0.4-1,0.4-1.6c0-0.6-0.1-1.2-0.4-1.7c-0.2-0.5-0.6-0.8-1-1.1c-0.4-0.2-0.9-0.4-1.4-0.4s-1,0.1-1.4,0.4
		c-0.4,0.2-0.8,0.6-1,1.1c-0.3,0.5-0.4,1-0.4,1.7c0,0.6,0.1,1.2,0.4,1.6c0.3,0.5,0.6,0.8,1,1.1C101.4,19.1,101.9,19.2,102.4,19.2z"
		/>
	<path class="st1" d="M115.4,21.8c-0.9,0-1.7-0.2-2.5-0.5c-0.7-0.4-1.3-0.9-1.7-1.6c-0.4-0.7-0.6-1.7-0.6-2.8v-6.3h3.2v5.8
		c0,0.9,0.2,1.6,0.6,2s0.9,0.7,1.7,0.7c0.5,0,0.9-0.1,1.3-0.3c0.4-0.2,0.7-0.5,0.9-1c0.2-0.4,0.3-1,0.3-1.7v-5.5h3.2v11.1h-3.1v-3.1
		l0.6,0.9c-0.4,0.8-0.9,1.4-1.6,1.7C117,21.6,116.2,21.8,115.4,21.8z"/>
	<path class="st1" d="M124.9,21.7V10.6h3.1v3.1l-0.4-0.9c0.3-0.8,0.9-1.4,1.6-1.8c0.7-0.4,1.6-0.6,2.7-0.6v3c-0.1,0-0.3,0-0.4,0
		s-0.2,0-0.4,0c-0.9,0-1.6,0.3-2.1,0.8c-0.5,0.5-0.8,1.3-0.8,2.3v5.2H124.9z"/>
</g>
<radialGradient id="SVGID_1_" cx="8.8266" cy="8.3032" r="16.1682" gradientUnits="userSpaceOnUse">
	<stop  offset="3.720238e-04" style="stop-color:#8E949A"/>
	<stop  offset="1" style="stop-color:#92A8B4"/>
</radialGradient>
<path class="st2" d="M17.2,16.1C17.3,16.1,17.3,16.1,17.2,16.1c1.2-0.5,2-1.2,2.6-2.2c0.6-0.9,0.9-2,0.9-3.3c0-1.3-0.3-2.4-0.9-3.4
	s-1.5-1.7-2.6-2.2c-1.1-0.5-2.5-0.8-4-0.8H5.8v3.3c0.7,1.6,2.5,2.6,4.3,2.3c0.7-0.1,1.4-0.2,2.2-0.2C12.1,9,12,8.4,11.8,7.8
	c-0.1-0.6-0.3-1.2-0.5-1.9c0.6,0.1,1.1,0,1.4,0.6C13.4,7.3,14,8.1,14.6,9c0.1,0.2,0.3,0.3,0.5,0.3c1.2-0.1,2.4-0.1,3.6-0.1
	c0.6,0,0.9,0.3,1,0.8c0,0.4-0.3,0.8-0.8,0.9c-1.2,0.2-2.4,0.5-3.6,0.7c-0.1,0-0.2,0.2-0.3,0.3c-0.4,1-0.7,1.9-1,2.9
	c-0.2,0.7-0.7,0.8-1.4,1c0-0.2,0-0.3,0-0.4c0-1,0-2.1,0-3.1c0-0.3,0-0.4-0.4-0.4c-0.9,0.1-1.8,0.3-2.7,0.3c-1.8,0.1-3.1,1.1-3.7,2.5
	v7.1h4v-4.8h3.5c0.1,0,0.1,0,0.2,0l3.3,4.8h4.3L17.2,16.1z"/>
</svg>
